<?xml version="1.0" encoding="UTF-8"?>
<svg width="26px" height="31px" viewBox="0 0 26 31" version="1.1" xmlns="http://www.w3.org/2000/svg" xmlns:xlink="http://www.w3.org/1999/xlink">
    <title>D4C84065-20F5-4407-AE42-CFA86BDC71E7</title>
    <g id="Page-1" stroke="none" stroke-width="1" fill="none" fill-rule="evenodd">
        <g id="Delete-popup" transform="translate(-888.000000, -357.000000)" fill="#30855C" fill-rule="nonzero" stroke="#30855C" stroke-width="0.5">
            <g id="Shape" transform="translate(889.000000, 358.000000)">
                <path d="M20.4532184,26.4444052 C20.4268592,27.0874859 19.8802551,27.6190476 19.2452715,27.6190476 L4.75472853,27.6190476 C4.11967934,27.6190476 3.57309265,27.08631 3.54678163,26.4444052 L2.71639227,6.18554082 C2.70077511,5.80453192 2.38427008,5.50853274 2.00945851,5.52440812 C1.63464688,5.5402835 1.34346226,5.86202175 1.35907943,6.24303061 L2.18946878,26.5018949 C2.2461034,27.8835992 3.39152631,29 4.75472853,29 L19.2452715,29 C20.6077384,29 21.7538204,27.8854576 21.8105312,26.5018949 L22.6409206,6.24303061 C22.6565377,5.86202175 22.3653531,5.5402835 21.9905415,5.52440812 C21.6157299,5.50853274 21.2992249,5.80453192 21.2836077,6.18554082 L20.4532184,26.4444052 Z M11.5471698,24.6269841 C11.5471698,25.0083236 11.8512783,25.3174603 12.2264151,25.3174603 C12.6015519,25.3174603 12.9056604,25.0083236 12.9056604,24.6269841 L12.9056604,8.97619048 C12.9056604,8.59485102 12.6015519,8.28571429 12.2264151,8.28571429 C11.8512783,8.28571429 11.5471698,8.59485102 11.5471698,8.97619048 L11.5471698,24.6269841 Z M6.79274645,24.6472835 C6.80377508,25.0284581 7.1166926,25.3283729 7.49166729,25.3171618 C7.86664193,25.3059509 8.16167846,24.9878594 8.15064978,24.6066848 L7.69781959,8.95589112 C7.68679096,8.5747165 7.37387343,8.27480172 6.99889875,8.28601276 C6.62392411,8.29722374 6.32888758,8.61531517 6.33991626,8.99648983 L6.79274645,24.6472835 Z M15.8493502,24.6066848 C15.8383215,24.9878594 16.1333581,25.3059509 16.5083327,25.3171618 C16.8833074,25.3283729 17.1962249,25.0284581 17.2072536,24.6472835 L17.6600837,8.99648983 C17.6711124,8.61531517 17.3760759,8.29722374 17.0011013,8.28601276 C16.6261266,8.27480172 16.313209,8.5747165 16.3021804,8.95589112 L15.8493502,24.6066848 Z M17.0787394,2.53174603 L23.3207547,2.53174603 C23.6958915,2.53174603 24,2.84088276 24,3.22222222 C24,3.60356168 23.6958915,3.91269841 23.3207547,3.91269841 L0.679245283,3.91269841 C0.304108483,3.91269841 0,3.60356168 0,3.22222222 C0,2.84088276 0.304108483,2.53174603 0.679245283,2.53174603 L6.92126065,2.53174603 L7.32568121,1.50397752 C7.66102456,0.651757324 8.60820109,0 9.50943396,0 L14.490566,0 C15.3943206,0 16.3380955,0.649521286 16.6743188,1.50397752 L17.0787394,2.53174603 L17.0787394,2.53174603 Z M15.6156003,2.53174603 L15.412992,2.01685034 C15.2830752,1.68668801 14.8388316,1.38095238 14.490566,1.38095238 L9.50943396,1.38095238 C9.16364993,1.38095238 8.71603005,1.68896203 8.587008,2.01685034 L8.38439973,2.53174603 L15.6156003,2.53174603 Z"></path>
            </g>
        </g>
    </g>
</svg>